HIERARCHY
ROOT Hips
{
 OFFSET 0.000000 0.000000 0.000000
 CHANNELS 6 Xposition Yposition Zposition Yrotation Xrotation Zrotation
 JOINT Chest
 {
  OFFSET 0.000000 9.581000 -0.001100
  CHANNELS 3 Yrotation Xrotation Zrotation
  JOINT Chest2
  {
   OFFSET 0.000000 9.561100 0.002200
   CHANNELS 3 Yrotation Xrotation Zrotation
   JOINT Chest3
   {
    OFFSET 0.000000 9.521100 0.000000
    CHANNELS 3 Yrotation Xrotation Zrotation
    JOINT Chest4
    {
     OFFSET 0.000000 9.511400 0.000000
     CHANNELS 3 Yrotation Xrotation Zrotation
     JOINT Neck
     {
      OFFSET 0.000000 14.375100 0.000000
      CHANNELS 3 Yrotation Xrotation Zrotation
      JOINT Head
      {
       OFFSET 0.000000 8.901200 0.004600
       CHANNELS 3 Yrotation Xrotation Zrotation
       End Site
       {
        OFFSET 0.000000 16.962200 0.002400
       }
      }
     }
     JOINT RightCollar
     {
      OFFSET -2.920100 9.518800 0.000000
      CHANNELS 3 Yrotation Xrotation Zrotation
      JOINT RightShoulder
      {
       OFFSET -13.664500 0.000000 0.000000
       CHANNELS 3 Yrotation Xrotation Zrotation
       JOINT RightElbow
       {
        OFFSET 0.000000 -29.999200 0.000000
        CHANNELS 3 Yrotation Xrotation Zrotation
        JOINT RightWrist
        {
         OFFSET 0.000000 -24.253600 0.000000
         CHANNELS 3 Yrotation Xrotation Zrotation
         End Site
         {
          OFFSET 0.000000 -17.918900 0.000000
         }
        }
       }
      }
     }
     JOINT LeftCollar
     {
      OFFSET 2.920100 9.518800 0.000000
      CHANNELS 3 Yrotation Xrotation Zrotation
      JOINT LeftShoulder
      {
       OFFSET 13.664500 0.000000 0.000000
       CHANNELS 3 Yrotation Xrotation Zrotation
       JOINT LeftElbow
       {
        OFFSET 0.000000 -29.999200 0.000000
        CHANNELS 3 Yrotation Xrotation Zrotation
        JOINT LeftWrist
        {
         OFFSET 0.000000 -24.253600 0.000000
         CHANNELS 3 Yrotation Xrotation Zrotation
         End Site
         {
          OFFSET 0.000000 -17.918900 0.000000
         }
        }
       }
      }
     }
    }
   }
  }
 }
 JOINT RightHip
 {
  OFFSET -7.797300 0.005300 0.000500
  CHANNELS 3 Yrotation Xrotation Zrotation
  JOINT RightKnee
  {
   OFFSET 0.000000 -40.663400 -0.000500
   CHANNELS 3 Yrotation Xrotation Zrotation
   JOINT RightAnkle
   {
    OFFSET 0.000000 -39.523700 -0.000900
    CHANNELS 3 Yrotation Xrotation Zrotation
    JOINT RightToe
    {
     OFFSET 0.000000 -6.418000 14.485300
     CHANNELS 3 Yrotation Xrotation Zrotation
     End Site
     {
      OFFSET 0.000000 -1.465200 6.326400
     }
    }
   }
  }
 }
 JOINT LeftHip
 {
  OFFSET 7.797300 0.005300 0.000500
  CHANNELS 3 Yrotation Xrotation Zrotation
  JOINT LeftKnee
  {
   OFFSET 0.000000 -40.663400 -0.000500
   CHANNELS 3 Yrotation Xrotation Zrotation
   JOINT LeftAnkle
   {
    OFFSET 0.000000 -39.523700 -0.000900
    CHANNELS 3 Yrotation Xrotation Zrotation
    JOINT LeftToe
    {
     OFFSET 0.000000 -6.418000 14.485300
     CHANNELS 3 Yrotation Xrotation Zrotation
     End Site
     {
      OFFSET 0.000000 -1.465200 6.326400
     }
    }
   }
  }
 }
}
MOTION
Frames: 8
Frame Time: 0.008333
0.000000 86.422400 0.000000 0.000000 -5.767877 0.000000 0.000000 11.653817 0.000000 0.000000 -5.885947 0.000000 0.000000 -0.000000 0.000000 0.000000 -0.000000 0.000000 0.000000 12.528835 0.000000 0.000000 0.711642 0.000000 0.000000 -0.000000 0.000000 0.000000 0.000000 -90.000000 0.000000 -2.309062 0.000000 0.000000 2.309062 0.000000 0.000000 -0.000000 0.000000 0.000000 -0.000000 90.000000 0.000000 -2.309062 0.000000 0.000000 2.309062 0.000000 0.000000 8.520406 0.000000 0.000000 1.905762 0.000000 -0.000000 -4.658285 0.000000 0.000000 -0.000000 0.000000 0.000000 8.520406 0.000000 0.000000 1.905762 0.000000 -0.000000 -4.658285 0.000000 0.000000 -0.000000 0.000000
-22.041930 126.346959 68.350523 -168.674896 -26.381939 -1.858756 -2.280442 21.088360 1.659782 -0.333103 2.791704 0.263598 -0.530404 4.525543 0.412766 -1.976779 18.011486 1.459861 -1.093053 18.311218 -0.245796 -1.102973 -6.359834 0.018416 -4.219035 -4.287290 0.003882 0.081455 -11.633361 -5.855677 94.143928 -68.452256 -62.898851 -2.493846 16.098669 -36.539847 -7.684091 -2.638701 -0.054658 -0.716292 -12.720678 9.070317 -62.579327 -73.495857 46.775632 -20.096255 4.714369 18.240387 -10.891251 -60.161264 5.749284 -34.305671 67.073495 -35.373233 28.953043 39.108047 21.409662 0.002635 -0.005144 0.001167 -9.688556 -49.384214 -7.721996 29.355401 77.933878 19.246039 -0.296898 -2.580838 8.466871 0.016775 -0.002616 0.007432
-22.041348 126.345532 68.348805 -168.705465 -26.355706 -1.836910 -2.270068 21.106075 1.661223 -0.332140 2.796189 0.264475 -0.530185 4.504863 0.408868 -1.967822 18.035505 1.465653 -1.100673 18.307697 -0.242558 -1.098035 -6.372183 0.015216 -4.218222 -4.299386 0.014077 0.102088 -11.612123 -5.883715 94.344627 -68.435438 -63.112928 -2.505861 16.098064 -36.572835 -7.671791 -2.682749 -0.054091 -0.686219 -12.646439 9.086459 -62.848207 -73.568344 47.006084 -20.087549 4.724919 18.261197 -10.873326 -60.197684 5.745322 -34.161159 67.100476 -35.244413 29.032423 39.147439 21.507937 0.008334 -0.005630 0.003692 -9.677246 -49.420675 -7.771720 29.564714 77.918224 19.485447 -0.270032 -2.590404 8.442680 0.003938 -0.004779 0.001745
-22.040082 126.344078 68.346137 -168.735362 -26.327989 -1.817570 -2.253775 21.109864 1.661616 -0.334041 2.809935 0.267805 -0.526571 4.516475 0.412735 -1.964463 17.995039 1.456093 -1.097117 18.334762 -0.233710 -1.101555 -6.424811 0.018262 -4.220030 -4.275123 0.028572 0.109646 -11.639099 -5.903788 94.443944 -68.410547 -63.203359 -2.477019 16.110771 -36.621757 -7.646254 -2.670283 -0.044591 -0.689276 -12.616829 9.092151 -63.029785 -73.616696 47.164426 -20.083270 4.717979 18.282390 -10.858469 -60.228387 5.750713 -34.090296 67.111855 -35.182372 29.070592 39.164992 21.556185 0.006926 -0.006411 0.003068 -9.661078 -49.452607 -7.797166 29.675482 77.909910 19.615618 -0.258755 -2.596218 8.429602 0.000256 -0.004754 0.000114
-22.038968 126.342438 68.343071 -168.767880 -26.297321 -1.793938 -2.231398 21.088525 1.654646 -0.339661 2.832029 0.273450 -0.524289 4.536144 0.416296 -1.950483 18.006254 1.460930 -1.102059 18.300006 -0.230847 -1.106495 -6.463767 0.014416 -4.236695 -4.297779 0.035080 0.132196 -11.617378 -5.930583 94.640791 -68.387136 -63.417422 -2.478110 16.123779 -36.641858 -7.627794 -2.700252 -0.033662 -0.698636 -12.600941 9.092792 -63.186660 -73.659076 47.303379 -20.080463 4.712659 18.301487 -10.854402 -60.260104 5.762250 -34.008581 67.125115 -35.115418 29.112854 39.178192 21.600953 0.004515 -0.006147 0.002000 -9.637757 -49.487311 -7.822378 29.786254 77.901173 19.734614 -0.250247 -2.597729 8.428562 -0.006913 -0.005931 -0.003063
-22.037252 126.340689 68.339496 -168.802843 -26.264523 -1.770993 -2.217084 21.094770 1.654009 -0.329333 2.802653 0.265539 -0.530843 4.571549 0.425252 -1.941664 18.043587 1.467301 -1.098855 18.227492 -0.223715 -1.107454 -6.520323 0.010328 -4.247845 -4.350887 0.034061 0.141264 -11.537990 -5.958652 94.957423 -68.372103 -63.752362 -2.475294 16.134467 -36.656558 -7.568185 -2.724231 -0.013969 -0.744966 -12.636173 9.072960 -63.302812 -73.677167 47.378553 -20.074285 4.712883 18.340057 -10.855509 -60.289444 5.784349 -33.906802 67.148738 -35.024496 29.035230 39.200298 21.623109 -0.005219 -0.004644 -0.002312 -9.611280 -49.523988 -7.847031 29.851539 77.899909 19.825442 -0.238514 -2.602225 8.409658 -0.005890 -0.005990 -0.002609
-22.034290 126.338873 68.335401 -168.838053 -26.229742 -1.753954 -2.224377 21.123220 1.654043 -0.311340 2.774027 0.259580 -0.527517 4.571061 0.424525 -1.929955 18.022771 1.460644 -1.095043 18.202993 -0.220236 -1.102208 -6.567385 0.018172 -4.251543 -4.353774 0.037095 0.139265 -11.459481 -5.966643 95.198041 -68.359871 -64.007600 -2.472362 16.144330 -36.659713 -7.540379 -2.712096 -0.003922 -0.760826 -12.635113 9.070144 -63.388747 -73.698637 47.451981 -20.072070 4.710516 18.351042 -10.853798 -60.319662 5.804825 -33.821481 67.169638 -34.928709 28.998670 39.224821 21.622897 -0.002248 -0.002993 -0.000996 -9.588529 -49.560150 -7.861369 29.915485 77.900922 19.913486 -0.223363 -2.611982 8.391823 -0.004933 -0.005238 -0.002185
-22.031060 126.337126 68.330776 -168.865769 -26.194871 -1.741032 -2.215658 21.118927 1.652754 -0.310898 2.768887 0.261354 -0.533247 4.587979 0.422096 -1.912463 17.989816 1.455884 -1.090746 18.185285 -0.218226 -1.089023 -6.622607 0.021028 -4.268395 -4.324996 0.044030 0.154906 -11.460359 -5.971426 95.309192 -68.348235 -64.121603 -2.481902 16.153776 -36.666645 -7.519979 -2.703560 0.004198 -0.762116 -12.601287 9.078768 -63.526768 -73.741142 47.584991 -20.067977 4.696436 18.364209 -10.844339 -60.348917 5.812206 -33.789899 67.180458 -34.885564 29.064966 39.226509 21.652419 0.005945 0.003430 0.002634 -9.567897 -49.593705 -7.878335 30.000689 77.900104 20.029867 -0.220985 -2.626736 8.372383 -0.003339 -0.003959 -0.001479
